<svg xmlns="http://www.w3.org/2000/svg" viewBox="0 0 480 340" role="img" aria-label="有機驗證證書">
  <rect width="480" height="340" rx="22" fill="#F8F5EC"/>
  <rect x="34" y="34" width="412" height="268" rx="14" fill="#fffdf7" stroke="#D7E4D0" stroke-width="6"/>
  <circle cx="116" cy="132" r="48" fill="#D7E4D0"/>
  <path d="M92 132c24-40 52-58 84-56-10 34-34 58-72 72 24 0 44 6 62 18-34 24-70 26-108 6 14-12 22-24 34-40z" fill="#6F8F61"/>
  <rect x="190" y="92" width="180" height="18" rx="9" fill="#6F8F61"/>
  <rect x="190" y="132" width="126" height="12" rx="6" fill="#C7A35A"/>
  <rect x="88" y="226" width="292" height="10" rx="5" fill="#D7E4D0"/>
  <rect x="88" y="252" width="220" height="10" rx="5" fill="#D7E4D0"/>
</svg>
