<svg xmlns="http://www.w3.org/2000/svg" viewBox="0 0 720 540" role="img" aria-label="手捧米粒">
  <rect width="720" height="540" rx="34" fill="#efe5d0"/>
  <circle cx="570" cy="114" r="88" fill="#d5a83c" opacity=".42"/>
  <path d="M76 358c104 38 192 50 264 36 94-18 180-8 258 30 24 12 22 48-4 56-122 38-258 42-408 12-56-12-98-32-126-62-28-32-18-86 16-72z" fill="#c99a7a"/>
  <path d="M118 328c72 42 154 62 246 58 54-2 98 0 132 10" fill="none" stroke="#8a5e44" stroke-width="8" stroke-linecap="round"/>
  <g fill="#f8f0da" stroke="#d5a83c" stroke-width="2">
    <ellipse cx="310" cy="250" rx="13" ry="28" transform="rotate(-22 310 250)"/>
    <ellipse cx="350" cy="235" rx="13" ry="28" transform="rotate(9 350 235)"/>
    <ellipse cx="390" cy="258" rx="13" ry="28" transform="rotate(28 390 258)"/>
    <ellipse cx="330" cy="292" rx="13" ry="28" transform="rotate(52 330 292)"/>
    <ellipse cx="410" cy="304" rx="13" ry="28" transform="rotate(-34 410 304)"/>
  </g>
  <g fill="none" stroke="#173b2f" stroke-width="5" stroke-linecap="round">
    <path d="M300 216c-18-64-8-120 30-168"/>
    <path d="M352 204c4-78 36-128 96-150"/>
    <path d="M402 226c42-64 92-96 150-96"/>
  </g>
</svg>
